<svg version="1.1" id="Livello_1" xmlns="http://www.w3.org/2000/svg" x="0" y="0" viewBox="0 0 115.4 172" xml:space="preserve"><style>.st0{fill:#fff}</style><g id="Livello_2_1_"><g id="Livello_1-2"><path class="st0" d="M83,135.1c0-14-11.3-25.3-25.3-25.4S32.4,121,32.4,135c0,9.2,5,17.7,13,22.2l4.1-7.3 c-8.2-4.5-11.1-14.8-6.6-23s14.8-11.1,23-6.6s11.1,14.8,6.6,23c-1.5,2.8-3.8,5-6.6,6.6l4.1,7.3C78,152.7,83,144.3,83,135.1z M24.5,39.8l29.2,6v-10C53.6,21.4,43.5,9,29.4,6L0.2,0v10C0.2,24.4,10.3,36.9,24.5,39.8z M27.7,14.3c10.1,2.1,17.4,11,17.6,21.3 l-19.1-4C16.1,29.4,8.8,20.6,8.6,10.3L27.7,14.3z M23.8,135.1c0.1-15.8,11-29.4,26.4-33l3.3-0.7V79.5c0-14.4-10.2-26.9-24.3-29.8 L0,43.6v10c0,14.4,10.2,26.9,24.3,29.8l20.8,4.3v7c-22.3,7-34.7,30.7-27.7,53c3.2,10.3,10.3,19,19.8,24.3l4.1-7.4 C30.5,158.7,23.9,147.4,23.8,135.1z M26,75.2C15.9,73.1,8.6,64.3,8.4,54l19.1,3.9c10.1,2.1,17.4,11,17.6,21.3L26,75.2z M86.3,31.6 C72.1,34.6,62,47,62,61.4v39.9l3.3,0.8c18.2,4.1,29.6,22.3,25.5,40.5c-2.1,9.4-8.2,17.4-16.6,22.1l4,7.4 c20.4-11.3,27.7-37.1,16.4-57.5c-5.3-9.5-13.9-16.5-24.3-19.8V69.7l20.8-4.3c14.1-3,24.2-15.4,24.3-29.8v-10L86.3,31.6z M89.4,57.2l-19.1,4c0.2-10.4,7.5-19.2,17.6-21.3l19-4C106.8,46.2,99.5,55,89.4,57.2z"/><path class="st0" d="M57.7,143.5c-4.6,0-8.4-3.8-8.4-8.4s3.8-8.4,8.4-8.4c4.6,0,8.4,3.8,8.4,8.4C66.1,139.7,62.3,143.5,57.7,143.5 z"/></g></g></svg>