<svg xmlns="http://www.w3.org/2000/svg" viewBox="0 0 203 50.85"><defs><style>.cls-1{fill:#fff}.cls-2{isolation:isolate}</style></defs><g id="Livello_2" data-name="Livello 2"><g id="Livello_1-2" data-name="Livello 1"><g id="Raggruppa_253" data-name="Raggruppa 253"><g id="Raggruppa_13" data-name="Raggruppa 13"><path id="Tracciato_20" data-name="Tracciato 20" class="cls-1" d="M25.49,9.34a9,9,0,0,0-7.14,8h0V30l1,.22a10,10,0,0,1,2.63,18.5l1.21,2.17A12.5,12.5,0,0,0,20.8,28V20.6l6.14-1.27a9,9,0,0,0,7.18-8.82v-3Zm1,7.56L20.8,18.06A6.54,6.54,0,0,1,26,11.77l5.64-1.16a6.55,6.55,0,0,1-5.2,6.29Z"/><path id="Tracciato_21" data-name="Tracciato 21" class="cls-1" d="M7.23,11.78l8.63,1.78v-3A9,9,0,0,0,8.68,1.79L.05,0V3A9.06,9.06,0,0,0,7.23,11.78Zm.95-7.56a6.55,6.55,0,0,1,5.2,6.29L7.74,9.34a6.54,6.54,0,0,1-5.2-6.29Z"/><path id="Tracciato_22" data-name="Tracciato 22" class="cls-1" d="M7.05,39.93a10.07,10.07,0,0,1,7.79-9.76l1-.22V22.69h0a9,9,0,0,0-7.14-8L0,12.89v3a9,9,0,0,0,7.18,8.82L13.32,26V28A12.49,12.49,0,0,0,11,50.85l1.21-2.17A10,10,0,0,1,7.05,39.93Zm.63-17.69A6.55,6.55,0,0,1,2.48,16l5.64,1.17a6.53,6.53,0,0,1,5.2,6.29Z"/><path id="Tracciato_23" data-name="Tracciato 23" class="cls-1" d="M24.54,39.93a7.49,7.49,0,1,0-11.12,6.54l1.21-2.17a5,5,0,1,1,4.85,0l1.21,2.17A7.51,7.51,0,0,0,24.54,39.93Z"/><circle id="Ellisse_1" data-name="Ellisse 1" class="cls-1" cx="17.05" cy="39.93" r="2.47"/></g><g id="rural_to_digital" data-name="rural to digital" class="cls-2"><g class="cls-2"><path class="cls-1" d="M93.65 26.48H92.18l.19-.77 3.3-.7-.78 3.1.17.05c.81-2 1.58-3.15 2.9-3.15.92 0 1.43.51 1.43 1.25a1.23 1.23 0 01-1.21 1.29.87.87 0 01-1-.87 1.23 1.23 0 01.36-.83l-.1-.12c-.58.1-1.29 1.09-2 2.48a22.48 22.48 0 00-1.47 4l-.46 1.84H91.76zM99.88 32.7a4.46 4.46 0 01.17-1.09l1.42-5.13H100l.18-.77 3.56-.7-2 7.13a1.8 1.8 0 000 .37.42.42 0 00.45.48c1.08 0 2.9-2.47 3.63-5.38l.6-2.39h1.83L106.26 33l.31.13 1.76-1.94.51.34-1.1 1.41c-.82 1.09-1.4 1.33-1.94 1.33a1.05 1.05 0 01-1.17-1.12 3.77 3.77 0 01.15-.92l.29-1.14-.17 0c-.92 1.68-1.85 3.23-3.49 3.23A1.41 1.41 0 0199.88 32.7zM111.38 26.48h-1.46l.18-.77 3.3-.7-.78 3.1.17.05c.81-2 1.58-3.15 2.9-3.15.92 0 1.43.51 1.43 1.25a1.22 1.22 0 01-1.2 1.29.88.88 0 01-1-.87 1.23 1.23 0 01.36-.83l-.1-.12c-.58.1-1.29 1.09-2 2.48a22.48 22.48 0 00-1.47 4l-.45 1.84h-1.84zM117 31.71c0-2.82 1.68-6.7 4.43-6.7a1.78 1.78 0 011.89 1.57h.17l.87-1.36h.91l-2 7.77.31.13 1.77-1.94.51.34-1.11 1.41c-.78 1-1.29 1.33-1.87 1.33a1 1 0 01-1.17-1.12 3.77 3.77 0 01.14-.92l.25-1-.17-.05c-.8 1.77-1.72 3.11-3.18 3.11C117.51 34.26 117 33.33 117 31.71zm5.72-3.48l.09-.34c.27-1.09 0-1.84-.88-1.84s-2 1-2.59 3.06a13.89 13.89 0 00-.44 2.7c0 .73.12 1.16.6 1.16C120.78 33 122.31 29.82 122.71 28.23zM126.57 33.1a3.36 3.36 0 01.14-.84l2.41-9.66h-1.46l.19-.76 3.47-.7-3 11.85.31.13 1.76-1.94.51.34-1.1 1.41c-.8 1.06-1.41 1.33-2 1.33A1.14 1.14 0 01126.57 33.1zM135.64 33.12a4.44 4.44 0 01.13-.86l1.53-6.16h-1.48l.22-.88h.7a1.28 1.28 0 001.33-.78l.9-1.59h1l-.58 2.37h2.07l-.22.88h-2.07l-1.7 6.83.29.17L140 31.27l.46.42-1.6 1.5c-1 .92-1.38 1.07-2 1.07A1.1 1.1 0 01135.64 33.12zM141.48 31.08c0-2.62 1.75-6.07 4.83-6.07 1.85 0 2.81 1.25 2.81 3.18 0 2.62-1.75 6.07-4.83 6.07C142.44 34.26 141.48 33 141.48 31.08zm5.12-.19a17.86 17.86 0 00.78-3.63c0-.83-.3-1.45-1.15-1.45-1.18 0-1.87 1.12-2.23 2.57a17.88 17.88 0 00-.78 3.64c0 .83.3 1.44 1.15 1.44C145.55 33.46 146.24 32.34 146.6 30.89zM153.89 31.71c0-2.82 1.7-6.7 4.41-6.7a1.6 1.6 0 011.7 1.23h.17L161 22.6h-1.46l.18-.76 3.47-.7L160.2 33l.31.13 1.76-1.94.51.34-1.1 1.41c-.77 1-1.29 1.33-1.87 1.33a1 1 0 01-1.17-1.12 3.78 3.78 0 01.13-.92l.26-1-.17-.05c-.8 1.77-1.72 3.11-3.18 3.11C154.42 34.26 153.89 33.33 153.89 31.71zm5.73-3.47l.09-.34c.29-1.08 0-1.85-.89-1.85s-2 1-2.58 3.06a13.89 13.89 0 00-.44 2.7c0 .73.12 1.16.59 1.16C157.7 33 159.25 29.72 159.62 28.24zM163.79 33.1a4.6 4.6 0 01.13-.84l1.45-5.78h-1.46l.18-.77 3.47-.7-2 8 .31.13 1.77-1.94.51.34-1.11 1.41c-.8 1.06-1.41 1.33-2 1.33A1.14 1.14 0 01163.79 33.1zm2.29-10.53a1.73 1.73 0 010-.38 1.22 1.22 0 011.24-.93.91.91 0 011 .86 1.73 1.73 0 010 .38 1.23 1.23 0 01-1.25.93A.91.91 0 01166.08 22.57zM167.05 35.88c0-1.13 1.36-1.75 2.67-2.09l0-.14a1.41 1.41 0 01-1-1.28c0-1 .91-1.53 1.8-1.73V30.5a2.12 2.12 0 01-1-1.93A3.67 3.67 0 01173.51 25a2.88 2.88 0 011.34.31c.28-1.05.75-1.7 1.55-1.7.56 0 .9.31.9.78a.92.92 0 01-.9.94.71.71 0 01-.75-.58h-.08l-.29.85a2.21 2.21 0 01.7 1.68 3.68 3.68 0 01-3.91 3.54 3.26 3.26 0 01-.72-.07c-.54.08-1.1.32-1.1.82s.35.49.91.68l1.59.56c1.59.54 2.38 1.07 2.38 2.21 0 1.88-2.16 2.63-4.51 2.63C168.05 37.66 167.05 36.86 167.05 35.88zm6.36-.29c0-.63-.43-.84-1.17-1.09l-1.79-.6c-1 .36-1.94.9-1.94 1.79s.7 1.38 2.35 1.38C172.12 37.07 173.41 36.68 173.41 35.59zm.54-7.26a9.08 9.08 0 00.31-1.58c0-.65-.27-1-.95-1-.92 0-1.43.73-1.7 1.8a9.26 9.26 0 00-.31 1.58c0 .65.27 1 .95 1C173.17 30.13 173.68 29.4 174 28.33zM177.39 33.1a4.6 4.6 0 01.13-.84L179 26.48h-1.46l.18-.77 3.47-.7-2 8 .31.13 1.77-1.94.51.34-1.11 1.41c-.8 1.06-1.41 1.33-2 1.33A1.14 1.14 0 01177.39 33.1zm2.29-10.53a1.73 1.73 0 010-.38 1.22 1.22 0 011.24-.93.91.91 0 011 .86 1.73 1.73 0 010 .38 1.23 1.23 0 01-1.25.93A.91.91 0 01179.68 22.57zM182.84 33.12a4.42 4.42 0 01.14-.86l1.53-6.16H183l.22-.88h.7a1.26 1.26 0 001.32-.78l.91-1.59h1l-.57 2.37h2.07l-.22.88h-2.07l-1.7 6.83.28.17 2.25-1.83.46.42-1.6 1.5c-.95.92-1.38 1.07-2 1.07A1.11 1.11 0 01182.84 33.12zM188.67 31.71c0-2.82 1.69-6.7 4.44-6.7A1.78 1.78 0 01195 26.58h.17l.86-1.36H197L195 33l.31.13 1.76-1.94.52.34-1.11 1.41c-.78 1-1.29 1.33-1.87 1.33a1 1 0 01-1.17-1.12 4.34 4.34 0 01.13-.92l.26-1-.17-.05c-.8 1.77-1.72 3.11-3.18 3.11C189.2 34.26 188.67 33.33 188.67 31.71zm5.73-3.48l.09-.34c.27-1.09 0-1.84-.89-1.84s-2 1-2.58 3.06a13.89 13.89 0 00-.44 2.7c0 .73.12 1.16.59 1.16C192.47 33 194 29.82 194.4 28.23zM198.26 33.1a3.36 3.36 0 01.14-.84l2.41-9.66h-1.46l.19-.76 3.46-.7L200.05 33l.3.13 1.77-1.94.51.34-1.1 1.41c-.8 1.06-1.41 1.33-2 1.33A1.14 1.14 0 01198.26 33.1z"/></g></g><g id="R2D" class="cls-2"><g class="cls-2"><path class="cls-1" d="M43.61 35.28V21.08H50a4.25 4.25 0 011.85.41 4.58 4.58 0 011.47 1.1 5.32 5.32 0 011 1.55 4.62 4.62 0 01.35 1.74 4.88 4.88 0 01-.28 1.67 4.61 4.61 0 01-.8 1.42 4.4 4.4 0 01-1.24 1l3.12 5.28H51.83L49.11 30.7H46.89v4.58zm3.28-7.44h3a1.08 1.08 0 00.71-.25 1.83 1.83 0 00.51-.69 2.47 2.47 0 00.2-1 2.15 2.15 0 00-.23-1 1.8 1.8 0 00-.57-.67 1.24 1.24 0 00-.72-.24h-2.9zM56.35 35.28a8.74 8.74 0 01.15-1.7 4.66 4.66 0 01.5-1.37 4.75 4.75 0 01.94-1.15 7.17 7.17 0 011.49-1L61 29.18c.42-.24.76-.44 1-.6a1.69 1.69 0 00.53-.48.9.9 0 00.15-.51 1.29 1.29 0 00-.18-.69 1.21 1.21 0 00-.52-.45 2.1 2.1 0 00-.84-.15 2.68 2.68 0 00-.76.1 3 3 0 00-.69.3 4 4 0 00-.63.47 7 7 0 00-.6.61l-2-2.36a5.49 5.49 0 01.87-.68 6.83 6.83 0 011.21-.61A8.69 8.69 0 0160 23.69a8.42 8.42 0 011.69-.17 6 6 0 012.43.43 3.38 3.38 0 011.51 1.23A3.27 3.27 0 0166.17 27 3.19 3.19 0 0166 28.25a3.31 3.31 0 01-.55.93 4.44 4.44 0 01-.77.73 10.09 10.09 0 01-.85.59l-.9.48-.78.45a6.52 6.52 0 00-.67.45 5.78 5.78 0 00-.59.52h5.54v2.88zM68.61 35.28V21.08h5.3a7.47 7.47 0 013.91 1 6.09 6.09 0 012.37 2.56 7.93 7.93 0 01.8 3.57 7.65 7.65 0 01-.88 3.76 6.21 6.21 0 01-2.47 2.48 7.54 7.54 0 01-3.73.88zm9-7.12A5.19 5.19 0 0077.21 26a3.37 3.37 0 00-1.28-1.48 3.73 3.73 0 00-2-.53h-2V32.4h2a3.56 3.56 0 002-.55 3.52 3.52 0 001.27-1.52A5.26 5.26 0 0077.65 28.16z"/></g></g></g></g></g></svg>