<?xml version="1.0" standalone="no"?>
<!DOCTYPE svg PUBLIC "-//W3C//DTD SVG 20010904//EN"
 "http://www.w3.org/TR/2001/REC-SVG-20010904/DTD/svg10.dtd">
<svg version="1.0" xmlns="http://www.w3.org/2000/svg"
 width="252.000000pt" height="128.000000pt" viewBox="0 0 252.000000 128.000000"
 preserveAspectRatio="xMidYMid meet">

<g transform="translate(0.000000,128.000000) scale(0.100000,-0.100000)"
fill="#000000" stroke="none">
<path d="M300 1250 c-11 -11 -20 -33 -20 -50 0 -32 -22 -50 -64 -50 -56 0 -76
-68 -31 -110 l25 -23 0 21 c0 17 6 22 25 22 24 0 25 -3 25 -60 0 -55 -2 -61
-25 -72 -21 -10 -32 -8 -64 10 -56 32 -71 29 -65 -10 3 -18 1 -51 -4 -73 -8
-33 -10 -35 -11 -12 -1 20 -6 27 -21 27 -17 0 -20 -7 -20 -46 0 -44 3 -48 78
-119 57 -55 84 -74 105 -75 31 0 28 -16 36 208 1 24 5 32 20 32 24 0 31 -40
31 -192 0 -118 0 -118 -24 -118 -28 0 -36 -16 -36 -76 0 -39 -3 -44 -22 -44
-20 0 -23 6 -25 41 -1 47 -23 68 -69 69 -37 0 -64 -26 -64 -62 0 -32 25 -54
56 -50 21 3 24 -1 24 -27 0 -26 4 -31 25 -31 17 0 25 -5 25 -18 0 -20 79 -102
98 -102 8 0 12 -18 12 -53 0 -55 13 -79 36 -70 12 4 14 99 14 569 l0 564 -25
0 c-14 0 -34 -9 -45 -20z"/>
<path d="M2213 1250 c-24 -11 -43 -24 -43 -30 0 -6 14 -44 32 -86 30 -72 32
-75 59 -69 22 5 30 2 39 -15 10 -19 7 -22 -32 -40 -33 -15 -56 -18 -100 -13
-47 5 -58 3 -58 -9 0 -23 77 -202 88 -206 6 -2 24 15 42 36 38 47 116 84 131
61 15 -24 10 -38 -16 -45 -14 -3 -25 -8 -25 -10 0 -4 31 -81 54 -136 l16 -38
53 21 c28 11 54 22 56 24 4 4 -33 100 -56 148 -11 23 -17 26 -33 17 -15 -8
-21 -6 -30 10 -15 28 -8 35 51 56 28 11 54 25 56 32 3 7 -5 37 -17 68 -25 61
-21 60 -106 26 l-51 -21 -11 24 c-10 21 -8 26 8 35 11 6 20 15 20 21 0 22 -64
159 -74 158 -6 0 -30 -9 -53 -19z"/>
<path d="M1427 1063 c-38 -10 -47 -53 -47 -233 0 -163 1 -170 20 -170 19 0 20
7 21 113 0 61 0 141 -1 177 0 40 5 76 14 93 8 15 14 26 13 26 -1 -1 -10 -3
-20 -6z"/>
<path d="M1501 1053 c0 -7 -8 -13 -16 -13 -8 0 -15 -9 -15 -20 0 -23 28 -27
36 -6 3 8 4 23 1 33 -3 10 -5 12 -6 6z"/>
<path d="M880 855 l0 -195 25 0 25 0 0 195 0 195 -25 0 -25 0 0 -195z"/>
<path d="M1217 1024 c-4 -4 -7 -16 -7 -26 0 -13 7 -18 26 -18 21 0 25 4 22 22
-3 23 -27 35 -41 22z"/>
<path d="M1977 953 c-13 -23 -17 -76 -8 -111 13 -48 43 -87 82 -107 40 -21 36
-5 -5 22 -47 31 -70 83 -63 150 5 50 4 62 -6 46z"/>
<path d="M2036 908 c-4 -15 -5 -37 -1 -50 9 -29 44 -68 62 -68 8 0 2 10 -13
24 -21 17 -29 36 -34 72 -6 44 -7 46 -14 22z"/>
<path d="M1558 867 c-30 -24 -48 -64 -48 -106 0 -36 38 -91 69 -103 24 -9 24
-8 6 12 -10 11 -20 41 -23 70 l-5 50 87 0 c53 0 86 4 86 10 0 21 -30 70 -49
80 -29 15 -31 13 -15 -17 27 -54 21 -63 -46 -63 -48 0 -60 3 -60 16 0 19 19
56 34 66 6 5 7 8 1 8 -5 0 -22 -10 -37 -23z"/>
<path d="M1210 770 l0 -110 25 0 25 0 0 110 0 110 -25 0 -25 0 0 -110z"/>
<path d="M1116 705 c-3 -13 -18 -30 -32 -38 l-25 -13 36 -1 c34 -1 35 0 35 38
0 45 -5 50 -14 14z"/>
<path d="M1438 345 l3 -205 27 0 27 0 -3 205 -3 205 -27 0 -27 0 3 -205z"/>
<path d="M875 340 l0 -200 28 0 27 0 0 110 0 110 34 0 c25 0 39 -7 50 -22 16
-22 16 -21 16 22 -1 36 -3 41 -11 28 -7 -12 -22 -18 -49 -18 l-40 0 0 85 0 85
-27 0 -28 0 0 -200z"/>
<path d="M1062 533 c15 -2 37 -16 48 -30 l20 -26 0 32 c0 31 -1 31 -47 30 -29
-1 -37 -4 -21 -6z"/>
<path d="M1610 504 c-11 -12 -10 -18 3 -31 8 -9 23 -13 31 -10 21 8 21 43 0
51 -21 8 -20 8 -34 -10z"/>
<path d="M2227 383 c8 -3 11 -14 7 -29 -5 -18 -2 -24 10 -24 9 0 19 7 22 15 8
19 -13 45 -35 44 -10 0 -11 -2 -4 -6z"/>
<path d="M1174 347 c-31 -28 -37 -42 -41 -84 -5 -47 -3 -54 28 -87 89 -97 233
-14 199 114 -12 44 -61 90 -93 89 -22 0 -22 0 1 -9 29 -12 42 -48 42 -116 0
-77 -21 -114 -66 -114 -41 0 -59 35 -59 117 0 69 2 76 28 99 19 17 23 24 12
24 -8 0 -32 -15 -51 -33z"/>
<path d="M1774 359 c-19 -21 -12 -48 14 -57 21 -7 27 30 7 44 -14 11 -15 14
-4 18 42 13 43 14 23 15 -11 1 -29 -8 -40 -20z"/>
<path d="M1860 371 c25 -7 25 -9 25 -106 0 -103 8 -124 45 -125 12 0 15 15 12
87 -1 49 -4 97 -7 109 -5 23 -44 45 -78 43 -20 -1 -20 -2 3 -8z"/>
<path d="M2058 350 c-25 -26 -29 -36 -24 -63 4 -17 13 -38 21 -46 12 -12 10
-17 -11 -33 -28 -22 -31 -54 -8 -79 14 -16 14 -19 -5 -38 -26 -26 -26 -36 -2
-60 20 -20 95 -37 127 -28 11 3 1 5 -21 6 -57 1 -87 25 -83 64 l3 32 85 0 85
0 -1 -40 -1 -40 14 33 c14 34 9 77 -11 90 -6 4 -47 9 -91 12 -71 4 -80 7 -80
25 0 11 9 24 21 30 16 8 19 15 13 30 -13 34 -10 89 7 113 23 33 -2 27 -38 -8z"/>
<path d="M2150 361 c14 -27 13 -114 -2 -129 -20 -20 7 -14 36 9 35 28 36 80 1
114 -30 31 -50 34 -35 6z"/>
<path d="M2334 347 c-44 -40 -55 -96 -29 -150 19 -41 71 -70 113 -64 26 4 26
4 -4 6 -47 2 -67 31 -70 103 -2 73 11 117 40 128 17 7 18 9 3 9 -9 1 -33 -14
-53 -32z"/>
<path d="M2427 370 c22 -9 40 -61 28 -80 -4 -6 6 -10 24 -10 35 0 38 8 16 50
-17 32 -43 50 -72 49 -15 0 -15 -2 4 -9z"/>
<path d="M1598 361 c10 -6 13 -35 10 -115 l-3 -106 28 0 27 0 0 115 0 115 -37
0 c-24 0 -33 -3 -25 -9z"/>
<path d="M1766 259 c-20 -16 -26 -29 -26 -59 0 -20 6 -43 13 -49 22 -17 73
-24 94 -12 16 9 15 10 -9 11 -46 0 -66 73 -31 112 14 15 14 18 1 18 -8 0 -27
-9 -42 -21z"/>
<path d="M2487 177 l-17 -32 20 24 c17 20 26 41 18 41 -2 0 -11 -15 -21 -33z"/>
</g>
</svg>
