<?xml version="1.0" encoding="utf-8"?>
<!-- Generator: Adobe Illustrator 24.2.1, SVG Export Plug-In . SVG Version: 6.00 Build 0)  -->
<svg version="1.1" id="Livello_1" xmlns="http://www.w3.org/2000/svg" xmlns:xlink="http://www.w3.org/1999/xlink" x="0px" y="0px"
	 viewBox="0 0 24 24" style="enable-background:new 0 0 24 24;" xml:space="preserve">
<style type="text/css">
	.st0{fill:#FFFFFF;}
	.st1{fill:#47C17B;}
</style>
<circle class="st0" cx="12" cy="12" r="10.8"/>
<path class="st1" d="M11,7.2H13v1.9H11V7.2z M11,11H13v5.8H11V11z M12,2.4c-5.3,0-9.6,4.3-9.6,9.6s4.3,9.6,9.6,9.6s9.6-4.3,9.6-9.6
	S17.3,2.4,12,2.4C12,2.4,12,2.4,12,2.4z M12,19.7c-4.2,0-7.7-3.4-7.7-7.7S7.8,4.3,12,4.3s7.7,3.4,7.7,7.7
	C19.7,16.2,16.2,19.7,12,19.7z"/>
</svg>
