<svg xmlns="http://www.w3.org/2000/svg"
	xmlns:xlink="http://www.w3.org/1999/xlink">
	<symbol id="wd-add" viewBox="0 0 24 24">
		<title>add</title>
		<path d="M0 0h24v24H0z" fill="none"/>
		<path d="M19 13h-6v6h-2v-6H5v-2h6V5h2v6h6z" fill="#fff"/>
	</symbol>
	<symbol id="wd-admin" viewBox="0 0 24 24">
		<title>cog</title>
		<path d="M8.156 23.988c-.676 0-1.323-.25-1.822-.704a2.702 2.702 0 01-.883-2.128l.072-1.404a1.21 1.21 0 00-1.206-1.271c-.021 0-.041 0-.062.002l-1.401.071a2.698 2.698 0 01-1.953-.692 2.692 2.692 0 01-.892-1.871c-.043-.817.281-1.6.887-2.149l1.042-.94a1.207 1.207 0 000-1.796L.896 10.16a2.687 2.687 0 01-.885-1.874 2.708 2.708 0 012.834-2.837l1.402.071a1.209 1.209 0 001.271-1.269l-.067-1.406A2.712 2.712 0 018.159.008c.76 0 1.489.323 2.001.886l.941 1.039a1.2 1.2 0 00.901.401 1.187 1.187 0 00.892-.398l.95-1.042a2.689 2.689 0 012.007-.89 2.707 2.707 0 012.707 2.847l-.071 1.4a1.21 1.21 0 001.146 1.267l.061.002.057-.001 1.4-.071.138-.003c.672 0 1.316.249 1.815.702.536.486.851 1.152.887 1.874a2.7 2.7 0 01-.889 2.143l-1.042.94a1.2 1.2 0 00-.396.836 1.2 1.2 0 00.396.958l1.042.941c.537.485.853 1.15.89 1.873a2.687 2.687 0 01-.695 1.953 2.72 2.72 0 01-2.015.892l-.131-.003-1.402-.071-.066-.002c-.302 0-.58.108-.806.311a1.194 1.194 0 00-.397.96l.071 1.4a2.698 2.698 0 01-.708 1.953 2.69 2.69 0 01-2.011.882c-.75 0-1.474-.321-1.986-.88l-.944-1.044a1.213 1.213 0 00-1.795 0l-.946 1.042a2.72 2.72 0 01-2.005.883zm-3.839-7.006a2.712 2.712 0 012.704 2.848l-.072 1.4a1.205 1.205 0 001.206 1.26l.059-.001a1.2 1.2 0 00.837-.394l.944-1.04a2.705 2.705 0 012.008-.892c.766 0 1.499.325 2.012.892l.941 1.041c.226.247.552.389.896.389l.049-.001a1.21 1.21 0 001.152-1.262l-.071-1.395a2.688 2.688 0 01.89-2.149 2.697 2.697 0 011.954-.694l1.399.071.069.002a1.2 1.2 0 00.889-.399c.217-.24.327-.55.311-.872a1.199 1.199 0 00-.397-.836l-1.042-.94a2.713 2.713 0 010-4.022l1.042-.94c.27-.244.414-.592.396-.956a1.2 1.2 0 00-.396-.837 1.203 1.203 0 00-.809-.313l-.062.002-1.399.071a2.95 2.95 0 01-.27-.001 2.71 2.71 0 01-2.568-2.84l.071-1.401a1.2 1.2 0 00-.397-.958 1.176 1.176 0 00-.802-.312l-.068.002a1.197 1.197 0 00-.837.397l-.948 1.04a2.703 2.703 0 01-2.148.889 2.691 2.691 0 01-1.871-.891L9.05 1.902a1.213 1.213 0 00-.894-.394l-.057.001a1.21 1.21 0 00-1.15 1.265l.067 1.4A2.708 2.708 0 014.17 7.018l-1.399-.07a1.21 1.21 0 00-1.262 1.264c.016.322.156.619.395.836l1.041.945a2.713 2.713 0 01-.002 4.021l-1.041.94c-.27.244-.414.594-.395.958a1.204 1.204 0 001.205 1.145c.021 0 .043 0 .064-.002l1.401-.071.14-.002z"/>
		<path d="M12 17.25c-2.895 0-5.25-2.355-5.25-5.25S9.105 6.75 12 6.75s5.25 2.355 5.25 5.25-2.355 5.25-5.25 5.25zm0-9c-2.068 0-3.75 1.682-3.75 3.75s1.682 3.75 3.75 3.75 3.75-1.682 3.75-3.75S14.068 8.25 12 8.25z"/>
	</symbol>
	<symbol id="wd-anagrafica" viewBox="0 0 24 24">
		<title>anagrafica</title>
		<path class="b" d="M22 3H2a2 2 0 00-2 2v14a2 2 0 002 2h20a2 2 0 002-2V5a2 2 0 00-2-2zm0 16H2V5h20z"/>
		<path class="b" d="M9 12c-3.36 0-6 1.76-6 4v2h12v-2c0-2.24-2.64-4-6-4zm-4 4c0-.94 1.71-2 4-2s4 1.06 4 2z"/>
		<path class="b" d="M9 6a3 3 0 103 3 3 3 0 00-3-3zm0 4a1 1 0 111-1 1 1 0 01-1 1zm5-3h6v2h-6zm3 4h3v2h-3z"/>
	</symbol>
	<symbol id="wd-arrow-back" viewBox="0 0 24 24">
		<title>arrow-back</title>
		<path d="M0 0h24v24H0V0z" fill="none"/>
		<path d="M20 11H7.8l5.6-5.6L12 4l-8 8 8 8 1.4-1.4L7.8 13H20v-2z"/>
	</symbol>
	<symbol id="wd-arrow-drop-down" viewBox="0 0 24 24">
		<title>arrow-drop-down</title>
		<path d="M7 10l5 5 5-5z"/>
	</symbol>
	<symbol id="wd-charts" viewBox="0 0 24 24">
		<title>charts</title>
		<path d="M21 12.7V2H3v18h8.5c2.2 2.5 6 2.7 8.5.5 2.2-2 2.6-5.3 1-7.8zM5 18v-2h5c0 .3 0 .7.1 1 0 .1 0 .2.1.3 0 .2.1.4.2.7H5zm5.4-4H5V4h14v6.8l-.1-.1c-.1-.1-.3-.1-.4-.2l-.3-.1-.4-.1-.3-.1-.5-.1h-.2c-.3-.1-.5-.1-.8-.1-2.5 0-4.8 1.6-5.6 4zm8.8 4.4c-1.3 1.8-3.8 2.1-5.6.8-1.8-1.3-2.1-3.8-.8-5.6.5-.7 1.3-1.3 2.2-1.5V17h4.9c-.2.5-.4 1-.7 1.4zM17 15v-2.9c.9.2 1.7.7 2.2 1.5.3.4.5.9.7 1.4H17z"/>
		<path d="M7 6h2v6H7zm4 0h2v3h-2zm4 0h2v3h-2z"/>
	</symbol>
	<symbol id="wd-check" viewBox="0 0 24 24">
		<title>check</title>
		<path d="M0 0h24v24H0V0z" fill="none"/>
		<path fill="#47c17b" d="M21.6 7l-2.2-2.3L8.8 15.3l-4.2-4.1-2.3 2.2 6.5 6.5z"/>
	</symbol>
	<symbol id="wd-chiocciola" viewBox="0 0 24 24">
		<title>chiocciola</title>
		<path d="M0 0h24v24H0z" fill="none"/>
		<path d="M12 1.95a10 10 0 000 20h5v-2h-5a8.1 8.1 0 01-8-8 8.1 8.1 0 018-8 8.1 8.1 0 018 8v1.43a1.616 1.616 0 01-1.5 1.57 1.616 1.616 0 01-1.5-1.57v-1.43a5 5 0 10-1.46 3.53 3.7 3.7 0 002.96 1.47 3.513 3.513 0 003.5-3.57v-1.43a10 10 0 00-10-10zm0 13a3 3 0 113-3 3 3 0 01-3 3z"/>
	</symbol>
	<symbol id="wd-close" viewBox="0 0 24 24">
		<title>close</title>
		<path d="M19 6.41L17.59 5 12 10.59 6.41 5 5 6.41 10.59 12 5 17.59 6.41 19 12 13.41 17.59 19 19 17.59 13.41 12z"/>
	</symbol>
	<symbol id="wd-corpo-aziendale" viewBox="0 0 24 24">
		<title>corpo-aziendale</title>
		<path class="b" d="M12 7V3H2v18h20V7zM6 19H4v-2h2zm0-4H4v-2h2zm0-4H4V9h2zm0-4H4V5h2zm4 12H8v-2h2zm0-4H8v-2h2zm0-4H8V9h2zm0-4H8V5h2zm10 12h-8v-2h2v-2h-2v-2h2v-2h-2V9h8zm-2-8h-2v2h2zm0 4h-2v2h2z"/>
	</symbol>
	<symbol id="wd-data-file-download" viewBox="0 0 24 24">
		<title>data-file-download</title>
		<path d="M17.25 24c-3.722 0-6.75-3.028-6.75-6.75s3.028-6.75 6.75-6.75S24 13.528 24 17.25 20.972 24 17.25 24zm0-12C14.355 12 12 14.355 12 17.25s2.355 5.25 5.25 5.25 5.25-2.355 5.25-5.25S20.145 12 17.25 12z"/>
		<path d="M17.25 21a.767.767 0 01-.258-.046l-.017-.006a.748.748 0 01-.256-.167l-2.25-2.25a.752.752 0 01.53-1.281c.2 0 .389.078.53.22l.97.97v-4.19a.75.75 0 011.501 0v4.189l.97-.97a.744.744 0 011.06 0 .752.752 0 010 1.061l-2.25 2.25a.74.74 0 01-.245.163l-.026.01a.73.73 0 01-.259.047zm-13.5-4.5a.75.75 0 01-.75-.75v-9a.75.75 0 011.5 0v4.189L5.909 9.53A2.235 2.235 0 017.5 8.872c.601 0 1.166.234 1.59.658l.582.582a.748.748 0 001.174-.144l.357-.598a.752.752 0 011.371.2.744.744 0 01-.083.568l-.358.6a2.236 2.236 0 01-1.93 1.092 2.233 2.233 0 01-1.59-.657l-.581-.581a.748.748 0 00-1.061 0L4.5 13.061V15h3.75a.75.75 0 010 1.5h-4.5z"/>
		<path d="M2.25 21A2.252 2.252 0 010 18.75V2.25A2.252 2.252 0 012.25 0h10.629c.601 0 1.165.234 1.59.658l2.872 2.872c.425.425.659.99.659 1.591V7.5a.75.75 0 01-1.5 0V5.121c0-.197-.08-.39-.219-.53l-2.872-2.872a.748.748 0 00-.53-.219H2.25a.75.75 0 00-.75.75v16.5c0 .414.336.75.75.75H7.5a.75.75 0 010 1.5H2.25z"/>
	</symbol>
	<symbol id="wd-delete" viewBox="0 0 24 24">
		<title>delete</title>
		<path d="M16 9v10H8V9h8m-1.5-6h-5l-1 1H5v2h14V4h-3.5zM18 7H6v12a2.006 2.006 0 002 2h8a2.006 2.006 0 002-2z"/>
	</symbol>
	<symbol id="wd-dettagli" viewBox="0 0 24 24">
		<title>dettagli</title>
		<path d="M3 13h2v-2H3zm0 4h2v-2H3zm0-8h2V7H3zm4 4h14v-2H7zm0 4h14v-2H7zM7 7v2h14V7zm-4 6h2v-2H3zm0 4h2v-2H3zm0-8h2V7H3zm4 4h14v-2H7zm0 4h14v-2H7zM7 7v2h14V7z"/>
	</symbol>
	<symbol id="wd-download" viewBox="0 0 24 24">
		<title>download</title>
		<path d="M19 9h-4V3H9v6H5l7 7zM5 18v2h14v-2z"/>
	</symbol>
	<symbol id="wd-dss-domande-psr-strutturali" viewBox="0 0 24 24">
		<title>dss-domande-psr-strutturali</title>
		<path d="M0 0h24v24H0V0z" fill="none"/>
		<path d="M18 13v7H4V6h5c.1-.7.2-1.4.5-2H4c-1.1 0-2 .9-2 2v14c0 1.1.9 2 2 2h14c1.1 0 2-.9 2-2v-5l-2-2zm1.3-4.1c1.3-2.1.7-4.9-1.4-6.2S13 2 11.7 4.1 11 9 13.1 10.3c.7.4 1.5.7 2.4.7.8 0 1.7-.2 2.4-.7l3.1 3.1 1.4-1.4-3.1-3.1zm-3.8.1C14.1 9 13 7.9 13 6.5S14.1 4 15.5 4 18 5.1 18 6.5 16.9 9 15.5 9z"/>
		<path d="M189.5 122.7h-2v-5.2l-3.4-2.2-3.6 2.2v5.2h-2v-6.3l5.6-3.5 5.4 3.6z" transform="translate(-173 -102)"/>
		<path d="M182.4 123.7c-.6 0-1-.4-1-1v-3.5c0-.6.4-1 1-1s1 .4 1 1v3.5c0 .6-.5 1-1 1z" transform="translate(-173 -102)"/>
		<g>
			<path d="M184.3 118.4h2v1.6h-2z" transform="translate(-173 -102)"/>
		</g>
	</symbol>
	<symbol id="wd-dss-domande-psr-superfici" viewBox="0 0 24 24">
		<title>dss-domande-psr-superfici</title>
		<path d="M0 0h24v24H0V0z" fill="none"/>
		<path d="M18 13v7H4V6h5c.1-.7.2-1.4.5-2H4c-1.1 0-2 .9-2 2v14c0 1.1.9 2 2 2h14c1.1 0 2-.9 2-2v-5l-2-2zm1.3-4.1c1.3-2.1.7-4.9-1.4-6.2S13 2 11.7 4.1 11 9 13.1 10.3c.7.4 1.5.7 2.4.7.8 0 1.7-.2 2.4-.7l3.1 3.1 1.4-1.4-3.1-3.1zm-3.8.1C14.1 9 13 7.9 13 6.5S14.1 4 15.5 4 18 5.1 18 6.5 16.9 9 15.5 9z"/>
		<path d="M11 18.7c-.5 0-1-.1-1.5-.4-1-.5-1.9-1.6-2.3-3-1.1-3.7-1.5-4.6-1.5-4.6l-.5-1.5 1.7.2c.2 0 4.6.5 6.7 3.4.9 1.3 1.1 2.7.7 3.8-.3.9-1.1 1.6-2.1 2-.4 0-.8.1-1.2.1zm-2.8-7c.2.7.5 1.7 1 3.1.3.9.7 1.5 1.3 1.8.3.2.7.2 1 .1.3-.1.7-.3.8-.7.2-.5 0-1.3-.5-2-.8-1.3-2.4-2-3.6-2.3z"/>
		<g>
			<path d="M151.6 122.9c-.5 0-1-.4-1-.9-.1-1.5-.6-2.9-1.4-4.2-.3-.5-.2-1.1.3-1.4.5-.3 1.1-.2 1.4.3 1 1.5 1.6 3.3 1.7 5.2 0 .5-.4 1-1 1z" transform="translate(-139 -102)"/>
		</g>
	</symbol>
	<symbol id="wd-dss-domande" viewBox="0 0 24 24">
		<title>dss-domande</title>
		<path d="M18 13v7H4V6h5c.1-.7.2-1.4.5-2H4c-1.1 0-2 .9-2 2v14c0 1.1.9 2 2 2h14c1.1 0 2-.9 2-2v-5l-2-2zm1.3-4.1c1.3-2.1.7-4.9-1.4-6.2S13 2 11.7 4.1 11 9 13.1 10.3c.7.4 1.5.7 2.4.7.8 0 1.7-.2 2.4-.7l3.1 3.1 1.4-1.4-3.1-3.1zm-3.8.1C14.1 9 13 7.9 13 6.5S14.1 4 15.5 4 18 5.1 18 6.5 16.9 9 15.5 9z"/>
		<path d="M6 15.5h10v2H6zm0-4h5v2H6z"/>
	</symbol>
	<symbol id="wd-dss-macrousi" viewBox="0 0 18 18">
		<title>dss-macrousi</title>
		<path d="M15.3 16.9H2.7c-.9 0-1.6-.7-1.6-1.6V2.7c0-.9.7-1.6 1.6-1.6h12.6c.9 0 1.6.7 1.6 1.6v12.6c0 .9-.7 1.6-1.6 1.6zM2.7 2.5c-.2 0-.2.1-.2.2v12.6c0 .2.1.2.2.2h12.6c.2 0 .2-.1.2-.2V2.7c0-.2-.1-.2-.2-.2H2.7z"/>
		<path d="M31.593 108.606l.92-.919 9.333 9.334-.92.92z" transform="translate(-30 -106)"/>
		<path d="M36.995 121.608l8.626-8.627.92.92-8.627 8.626zM39.14 115.04l6.506-6.503.99.99-6.507 6.504zM36.911 112.678l5.374-5.374.92.919-5.375 5.374zM34.585 110.658l3.181-3.182.92.919-3.182 3.182z" transform="translate(-30 -106)"/>
	</symbol>
	<symbol id="wd-dss-ote" viewBox="0 0 24 24">
		<title>dss-ote</title>
		<path d="M21 8h-4a1 1 0 00-1 1v9h-1V5a1 1 0 00-1-1h-4a1 1 0 00-1 1v13H8v-7a1 1 0 00-1-1H3a1 1 0 00-1 1v9h20V9a1 1 0 00-1-1zM4 18v-6h2v6zm7 0V6h2v12zm7 0v-8h2v8z"/>
	</symbol>
	<symbol id="wd-dss-zootecnia" viewBox="0 0 24 24">
		<title>dss-zootecnia</title>
		<path d="M5 22h2v-5h7v5h2v-7H5zm13-7h2v7h-2z"/>
		<path d="M24 2h-2a2.22 2.22 0 01-1.24 2h-4.52A2.22 2.22 0 0115 2h-2a4.21 4.21 0 002 3.59V6H6a5 5 0 00-5 5v11h2V11a3 3 0 013-3h9v1.5a3.5 3.5 0 007 0V5.59A4.21 4.21 0 0024 2zm-4 7.5a1.5 1.5 0 01-3 0V6h3z"/>
	</symbol>
	<symbol id="wd-dss" viewBox="0 0 24 24">
		<title>analytics-graph-bar</title>
		<path d="M.749 24a.75.75 0 010-1.5h.75v-3.25c0-.689.561-1.25 1.25-1.25H5.5c.689 0 1.25.561 1.25 1.25v3.25h2.249V10.25c0-.689.561-1.25 1.25-1.25H13c.689 0 1.25.561 1.25 1.25V22.5h2.25v-7.75c0-.688.56-1.249 1.248-1.25H20.5c.689 0 1.25.561 1.25 1.25v7.75h.749a.75.75 0 010 1.5H.749zm19.501-1.5V15H18v7.5h2.25zm-7.5 0v-12h-2.251v12h2.251zm-7.5 0v-3H2.999v3H5.25z"/>
		<path d="M2.249 12.751a2.252 2.252 0 01-2.25-2.25 2.252 2.252 0 012.653-2.213l3.385-3.382A2.252 2.252 0 018.249 2.25a2.252 2.252 0 012.25 2.25v.028l3.421.915a2.243 2.243 0 012.868-.688l2.742-2.144A2.253 2.253 0 0121.75 0C22.99 0 24 1.009 24 2.25S22.991 4.5 21.75 4.5a2.241 2.241 0 01-1.484-.56l-2.452 1.917A2.252 2.252 0 0115.75 9a2.253 2.253 0 01-2.246-2.114l-3.53-.944a2.243 2.243 0 01-3.15.298L3.987 9.074c.329.4.512.902.512 1.427a2.252 2.252 0 01-2.25 2.25zm0-3a.75.75 0 100 1.5.75.75 0 000-1.5zM15.75 6a.75.75 0 10.002 1.502A.75.75 0 0015.75 6zM8.249 3.751a.75.75 0 100 1.5.75.75 0 000-1.5zM21.75 1.5a.75.75 0 000 1.5.75.75 0 000-1.5z"/>
	</symbol>
	<symbol id="wd-expand-less" viewBox="0 0 24 24">
		<title>expand-less</title>
		<path d="M12 8l-6 6 1.41 1.41L12 10.83l4.59 4.58L18 14z"/>
	</symbol>
	<symbol id="wd-expand-more" viewBox="0 0 24 24">
		<title>expand-more</title>
		<path class="b" d="M16.59 8.59L12 13.17 7.41 8.59 6 10l6 6 6-6z"/>
	</symbol>
	<symbol id="wd-fascicolo-aziendale" viewBox="0 0 24 24">
		<title>office-drawer</title>
		<path d="M1.728 23.999A1.73 1.73 0 010 22.271v-8.479c0-.875.655-1.601 1.5-1.713V6.977A1.739 1.739 0 013.233 5.25h8.392a1.745 1.745 0 011.424.743l.962 1.505h6.003c.956 0 1.732.774 1.736 1.726v2.84h.522A1.73 1.73 0 0124 13.792v8.479a1.73 1.73 0 01-1.728 1.728H1.728zm0-10.435a.228.228 0 00-.228.228v8.479c0 .126.102.228.228.228h20.544a.228.228 0 00.228-.228v-8.479a.228.228 0 00-.228-.228H1.728zm18.522-1.5V9.227a.232.232 0 00-.233-.229H13.6a.748.748 0 01-.632-.346L11.803 6.83a.24.24 0 00-.177-.079H3.234A.233.233 0 003 6.982v5.082h17.25z"/>
		<path d="M9.065 16.498a.75.75 0 010-1.5h5.87a.75.75 0 010 1.5h-5.87zm10.672-10.5a.75.75 0 01-.75-.75V3.977a.232.232 0 00-.233-.227H13.6a.747.747 0 01-.632-.347l-1.165-1.826a.24.24 0 00-.177-.079H4.5a.235.235 0 00-.237.232v1.04a.75.75 0 01-1.5 0V1.727A1.735 1.735 0 014.49-.002h7.135a1.745 1.745 0 011.42.737l.966 1.515h4.739c.954 0 1.731.773 1.737 1.722v1.276a.75.75 0 01-.75.75z"/>
	</symbol>
	<symbol id="wd-fascicolo" viewBox="0 0 24 24">
		<title>fascicolo</title>
		<path class="a" d="M17 8V5.59L13.41 2H4v7H2v11a2 2 0 002 2h13a2 2 0 002-2h1a2 2 0 002-2V8zM6 4h6.59L15 6.41V11h-2.59l-2-2H6zm11 16H4v-9h5.59l2 2H17zm3-2h-1v-7h-2v-1h3z"/>
		<path class="a" d="M6 16h5v2H6z"/>
	</symbol>
	<symbol id="wd-first-page" viewBox="0 0 24 24">
		<title>first-page</title>
		<path d="M6 7.4l4.6 4.6L6 16.6 7.4 18l6-6-6-6L6 7.4zM18.4 18h-2V6h2v12z" transform="rotate(180 12 12)"/>
	</symbol>
	<symbol id="wd-fullscreen-exit" viewBox="0 0 24 24">
		<title>fullscreen-exit</title>
		<path d="M5 16h3v3h2v-5H5zm3-8H5v2h5V5H8zm6 11h2v-3h3v-2h-5zm2-11V5h-2v5h5V8z"/>
	</symbol>
	<symbol id="wd-fullscreen-open" viewBox="0 0 24 24">
		<title>fullscreen-open</title>
		<path d="M7 14H5v5h5v-2H7zm-2-4h2V7h3V5H5zm12 7h-3v2h5v-5h-2zM14 5v2h3v3h2V5z"/>
	</symbol>
	<symbol id="wd-globe" viewBox="0 0 24 24">
		<title>earth-3</title>
		<path d="M12 24a12.02 12.02 0 01-2.936-.366 11.959 11.959 0 01-7.153-5.149.751.751 0 01-.109-.171A11.952 11.952 0 010 12c0-2.234.623-4.416 1.801-6.313a.804.804 0 01.11-.173A11.976 11.976 0 0114.831.34a11.978 11.978 0 017.257 5.174.75.75 0 01.111.173A11.955 11.955 0 0124 12c0 2.234-.623 4.416-1.801 6.313a.744.744 0 01-.111.172A11.974 11.974 0 0112 24zm-2.246-1.745c.742.162 1.496.245 2.246.245s1.504-.083 2.246-.245c.563-.9 1.052-2.102 1.427-3.505H8.327c.375 1.404.864 2.605 1.427 3.505zm7.478-3.505a17.432 17.432 0 01-.945 2.832 10.476 10.476 0 003.747-2.832h-2.802zm-13.266 0a10.473 10.473 0 003.746 2.832 17.432 17.432 0 01-.945-2.832H3.966zm17.124-1.5a10.471 10.471 0 001.38-4.5h-4.481a29.288 29.288 0 01-.438 4.5h3.539zm-5.074 0c.271-1.409.433-2.951.472-4.5H7.512c.039 1.55.201 3.092.472 4.5h8.032zm-9.567 0a29.288 29.288 0 01-.438-4.5H1.53c.113 1.586.586 3.13 1.38 4.5h3.539zm16.021-6a10.471 10.471 0 00-1.38-4.5h-3.539c.255 1.418.402 2.928.438 4.5h4.481zm-5.982 0a27.852 27.852 0 00-.472-4.5H7.984a27.965 27.965 0 00-.472 4.5h8.976zm-10.477 0c.036-1.572.183-3.082.438-4.5H2.91a10.471 10.471 0 00-1.38 4.5h4.481zm14.023-6a10.467 10.467 0 00-3.747-2.832c.37.842.687 1.789.945 2.832h2.802zm-4.361 0c-.375-1.403-.864-2.605-1.427-3.505A10.482 10.482 0 0012 1.5c-.749 0-1.504.083-2.246.245-.563.9-1.052 2.101-1.427 3.505h7.346zm-8.905 0c.258-1.042.574-1.99.945-2.832A10.467 10.467 0 003.966 5.25h2.802z"/>
	</symbol>
	<symbol id="wd-group-add" viewBox="0 0 24 24">
		<title>group-add</title>
		<path d="M5 15v-3h3v-2H5V7H3v3H0v2h3v3zm7-1.25c-2.34 0-7 1.17-7 3.5V19h14v-1.75c0-2.33-4.66-3.5-7-3.5zM7.34 17A9.642 9.642 0 0112 15.75 9.642 9.642 0 0116.66 17zM12 12a3.5 3.5 0 10-3.5-3.5A3.5 3.5 0 0012 12zm0-5a1.5 1.5 0 11-1.5 1.5A1.5 1.5 0 0112 7zm5 5a3.5 3.5 0 000-7 3.353 3.353 0 00-.71.07 5.418 5.418 0 01-.02 6.85A3.549 3.549 0 0017 12zm2.32 2.02A4.086 4.086 0 0121 17.25V19h3v-1.75c0-1.69-2.44-2.76-4.68-3.23z"/>
	</symbol>
	<symbol id="wd-group" viewBox="0 0 24 24">
		<title>group</title>
		<path d="M0 0h24v24H0z" fill="none"/>
		<path d="M9 13.75c-2.34 0-7 1.17-7 3.5V19h14v-1.75c0-2.33-4.66-3.5-7-3.5zM4.34 17A9.642 9.642 0 019 15.75 9.642 9.642 0 0113.66 17zM9 12a3.5 3.5 0 10-3.5-3.5A3.5 3.5 0 009 12zm0-5a1.5 1.5 0 11-1.5 1.5A1.5 1.5 0 019 7zm7.04 6.81A4.193 4.193 0 0118 17.25V19h4v-1.75c0-2.02-3.5-3.17-5.96-3.44zM15 12a3.5 3.5 0 000-7 3.446 3.446 0 00-1.5.35 5.461 5.461 0 010 6.3A3.446 3.446 0 0015 12z" fill="#7e7e6e"/>
	</symbol>
	<symbol id="wd-home" viewBox="0 0 24 24">
		<title>home</title>
		<path d="M0 0h24v24H0z" fill="none"/>
		<path d="M12 5.69l5 4.5V18h-2v-6H9v6H7v-7.81l5-4.5M12 3L2 12h3v8h6v-6h2v6h6v-8h3z" fill="#fff"/>
	</symbol>
	<symbol id="wd-info" viewBox="0 0 24 24">
		<title>info</title>
		<path class="b" d="M11 7h2v2h-2zm0 4h2v6h-2zm1-9a10 10 0 1010 10A10 10 0 0012 2zm0 18a8 8 0 118-8 8.011 8.011 0 01-8 8z"/>
	</symbol>
	<symbol id="wd-last-page" viewBox="0 0 24 24">
		<title>last-page</title>
		<path d="M18.4 16.6L13.8 12l4.6-4.6L17 6l-6 6 6 6 1.4-1.4zM6 6h2v12H6V6z" transform="rotate(180 12 12)"/>
	</symbol>
	<symbol id="wd-layers" viewBox="0 0 24 24">
		<title>layers</title>
		<path class="b" d="M11.99 18.54l-7.37-5.73L3 14.07l9 7 9-7-1.63-1.27zM12 16l7.36-5.73L21 9l-9-7-9 7 1.63 1.27zm0-11.47L17.74 9 12 13.47 6.26 9 12 4.53z"/>
	</symbol>
	<symbol id="wd-list" viewBox="0 0 24 24">
		<title>list</title>
		<path d="M0 0h24v24H0z" fill="none"/>
		<path d="M0 0h24v24H0z" opacity=".87" fill="none"/>
		<path d="M3 13h2v-2H3zm0 4h2v-2H3zm0-8h2V7H3zm4 4h14v-2H7zm0 4h14v-2H7zM7 7v2h14V7zm-4 6h2v-2H3zm0 4h2v-2H3zm0-8h2V7H3zm4 4h14v-2H7zm0 4h14v-2H7zM7 7v2h14V7z" fill="#fff"/>
	</symbol>
	<symbol id="wd-login-header" viewBox="0 0 24 24">
		<title>login-header</title>
		<g>
			<path d="M860.422 420.081h24v24h-24z" fill="none" transform="translate(-860.422 -420.081)"/>
			<path d="M872.422 422.081a10 10 0 1010 10 10 10 0 00-10-10zm-4.93 16.28c.43-.9 3.05-1.78 4.93-1.78s4.51.88 4.93 1.78a7.925 7.925 0 01-9.86 0zm11.29-1.45c-1.43-1.74-4.9-2.33-6.36-2.33s-4.93.59-6.36 2.33a8 8 0 1112.72 0zm-6.36-10.83a3.5 3.5 0 103.5 3.5 3.491 3.491 0 00-3.5-3.5zm0 5a1.5 1.5 0 111.5-1.5 1.5 1.5 0 01-1.5 1.5z" transform="translate(-860.422 -420.081)"/>
		</g>
	</symbol>
	<symbol id="wd-logout" viewBox="0 0 24 24">
		<title>logout</title>
		<path d="M12.755 16.504a.752.752 0 01-.53-1.281l2.47-2.47H.755a.75.75 0 010-1.5h13.939l-2.47-2.47c-.142-.141-.22-.33-.22-.53s.078-.389.22-.53c.141-.142.33-.22.53-.22s.389.078.53.22l3.75 3.75a.74.74 0 01.163.245l.01.026a.73.73 0 010 .517l-.006.016a.764.764 0 01-.168.257l-3.749 3.749a.736.736 0 01-.529.221z"/>
		<path d="M12.769 23.253c-4.285 0-8.262-2.483-10.132-6.325a.745.745 0 01-.035-.573.745.745 0 01.709-.505c.29 0 .548.162.675.422a9.685 9.685 0 005.585 4.949 9.744 9.744 0 003.189.539 9.66 9.66 0 004.26-.989 9.685 9.685 0 004.949-5.585 9.685 9.685 0 00-.45-7.449c-1.621-3.33-5.068-5.482-8.783-5.482a9.636 9.636 0 00-4.251.983 9.69 9.69 0 00-4.333 4.173.749.749 0 01-1.015.309.752.752 0 01-.309-1.015 11.181 11.181 0 015-4.816A11.116 11.116 0 0112.735.755c4.285 0 8.262 2.483 10.132 6.326a11.176 11.176 0 01.519 8.595 11.174 11.174 0 01-5.71 6.444 11.126 11.126 0 01-4.907 1.133z"/>
	</symbol>
	<symbol id="wd-mandati" viewBox="0 0 24 24">
		<title>mandati</title>
		<path class="b" d="M7 15h7v2H7zm0-4h10v2H7zm0-4h10v2H7zm12-4h-4.18a2.988 2.988 0 00-5.64 0H5a1.752 1.752 0 00-.4.04 2.021 2.021 0 00-1.44 1.19A1.926 1.926 0 003 5v14a2.052 2.052 0 00.16.78 2.119 2.119 0 00.43.64 2.008 2.008 0 001.01.55A2.6 2.6 0 005 21h14a2.006 2.006 0 002-2V5a2.006 2.006 0 00-2-2zm-7-.25a.75.75 0 11-.75.75.755.755 0 01.75-.75zM19 19H5V5h14z"/>
	</symbol>
	<symbol id="wd-next-page" viewBox="0 0 24 24">
		<title>next-page</title>
		<path d="M15.7 11.7l-6-6-1.4 1.4 4.6 4.6-4.6 4.6 1.4 1.4 6-6z"/>
	</symbol>
	<symbol id="wd-no-results" viewBox="0 0 24 24">
		<title>no-results</title>
		<path class="b" d="M12 2a10 10 0 1010 10A10 10 0 0012 2zM4 12a8 8 0 018-8 7.9 7.9 0 014.9 1.69L5.69 16.9A7.9 7.9 0 014 12zm8 8a7.9 7.9 0 01-4.9-1.69L18.31 7.1A7.9 7.9 0 0120 12a8 8 0 01-8 8z"/>
	</symbol>
	<symbol id="wd-office-outdoors" viewBox="0 0 24 24">
		<title>office-outdoors</title>
		<path d="M3.75 10.5a.75.75 0 010-1.5h4.5a.75.75 0 010 1.5h-4.5zm0 4.5a.75.75 0 010-1.5h4.5a.75.75 0 010 1.5h-4.5z"/>
		<path d="M.75 24a.75.75 0 01-.75-.75V6.958c.045-.966.816-1.709 1.755-1.709l.078.002H3V3.5c.042-.711.605-1.251 1.282-1.251l.073.002.877-.001L5.25.904A.753.753 0 016 .163a.753.753 0 01.75.759L6.733 2.25h.955l.042-.001A1.279 1.279 0 019 3.5v1.75h1.2l.063-.001c.929 0 1.692.735 1.736 1.674L12 15.75a.75.75 0 01-1.5 0V6.958c-.005-.103-.125-.209-.255-.209L1.8 6.75l-.037-.001a.258.258 0 00-.264.245L1.5 22.5h5.348v-2.413H5.641a.75.75 0 010-1.5h9.783a.75.75 0 010 1.5h-1.207V22.5h4.533v-5.315C16.621 16.824 15 14.939 15 12.75c0-2.481 2.019-4.5 4.5-4.5s4.5 2.019 4.5 4.5c0 2.188-1.621 4.073-3.75 4.435V22.5h3a.75.75 0 010 1.5H.75zm11.967-1.5v-2.413H8.348V22.5h4.369zM19.5 9.75c-1.654 0-3 1.346-3 3 0 1.387.942 2.569 2.25 2.904V13.5a.75.75 0 011.5 0v2.154a2.995 2.995 0 002.25-2.904c0-1.654-1.346-3-3-3zm-12-4.5V3.749l-3.001.001.001 1.5h3z"/>
	</symbol>
	<symbol id="wd-partite-iva" viewBox="0 0 24 24">
		<title>partite-iva</title>
		<path class="b" d="M20 7h-4V5l-2-2h-4L8 5v2H4a2.006 2.006 0 00-2 2v5a1.984 1.984 0 001 1.73V19a1.993 1.993 0 002 2h14a1.993 1.993 0 002-2v-3.28A2.013 2.013 0 0022 14V9a2.006 2.006 0 00-2-2zM10 5h4v2h-4zM4 9h16v5h-5v-3H9v3H4zm9 6h-2v-2h2zm6 4H5v-3h4v1h6v-1h4z"/>
	</symbol>
	<symbol id="wd-pin-location-1" viewBox="0 0 24 24">
		<title>pin-location-1</title>
		<path d="M12 11.25c-2.068 0-3.75-1.682-3.75-3.75S9.932 3.75 12 3.75s3.75 1.682 3.75 3.75-1.682 3.75-3.75 3.75zm0-6c-1.241 0-2.25 1.009-2.25 2.25S10.759 9.75 12 9.75s2.25-1.009 2.25-2.25S13.241 5.25 12 5.25z"/>
		<path d="M11.998 20.741a1.118 1.118 0 01-.908-.462C5.142 12.087 4.5 8.613 4.5 7.5 4.5 3.365 7.865 0 12 0s7.5 3.365 7.5 7.5c0 3.435-5.043 10.648-6.589 12.777a1.118 1.118 0 01-.913.464zM12 1.5c-3.308 0-6 2.692-6 6 0 2.291 3.164 7.514 6 11.475 2.835-3.961 6-9.184 6-11.475 0-3.308-2.692-6-6-6z"/>
		<path d="M12 24c-2.756 0-5.495-.32-7.514-.879C2.042 22.445.75 21.452.75 20.25c0-1.803 2.775-2.734 5.103-3.198a.75.75 0 01.293 1.471c-2.915.581-3.896 1.429-3.896 1.727 0 .176.465.81 2.531 1.4 1.918.548 4.481.85 7.219.85s5.301-.302 7.219-.85c2.066-.59 2.531-1.224 2.531-1.4 0-.299-.986-1.15-3.917-1.73-.197-.039-.366-.152-.478-.319s-.151-.366-.113-.563a.752.752 0 01.882-.589c2.338.463 5.125 1.394 5.125 3.202 0 1.202-1.292 2.195-3.736 2.871C17.495 23.68 14.756 24 12 24z"/>
	</symbol>
	<symbol id="wd-prev-page" viewBox="0 0 24 24">
		<title>prev-page</title>
		<path d="M8.3 11.7l6 6 1.4-1.4-4.6-4.6 4.6-4.6-1.4-1.4-6 6z"/>
	</symbol>
	<symbol id="wd-read-search" viewBox="0 0 24 24">
		<title>read-search</title>
		<path d="M7.489 19.831a.744.744 0 01-.363-.094 13.841 13.841 0 00-5.161-1.652A2.252 2.252 0 010 15.858V2.26A2.26 2.26 0 012.568.026a16.684 16.684 0 018.229 3.744.745.745 0 00.431.145l.021-.001a.766.766 0 00.476-.163A16.632 16.632 0 0119.922.028a2.236 2.236 0 011.925.642c.423.426.655.992.652 1.594v7.49a.75.75 0 01-1.5 0V2.26a.748.748 0 00-.747-.757.734.734 0 00-.109.008 15.173 15.173 0 00-7.474 3.405c-.208.162-.43.283-.67.365v2.22a.75.75 0 01-1.5 0V5.283a2.218 2.218 0 01-.646-.348A15.204 15.204 0 002.348 1.51a.753.753 0 00-.849.747V15.86c0 .373.278.689.646.737 2.008.229 3.93.844 5.707 1.829a.75.75 0 01-.363 1.405z"/>
		<path d="M8.253 7.98a.748.748 0 01-.4-.116 14.17 14.17 0 00-3.525-1.597.751.751 0 01.212-1.469c.073 0 .145.011.215.032a15.641 15.641 0 013.898 1.766.75.75 0 01-.4 1.384zm0 3.745a.745.745 0 01-.445-.147A9.635 9.635 0 003.62 9.824a.749.749 0 11.235-1.481c1.746.277 3.421.979 4.843 2.028a.75.75 0 01-.445 1.354zm5.993-3.745a.749.749 0 01-.732-.916.747.747 0 01.331-.469 15.634 15.634 0 013.899-1.767.754.754 0 01.932.506.746.746 0 01-.506.932 14.127 14.127 0 00-3.524 1.597.732.732 0 01-.4.117zm9.003 16.022a.743.743 0 01-.53-.22l-2.759-2.759a6.736 6.736 0 01-4.21 1.479A6.758 6.758 0 019 15.752c0-3.722 3.028-6.75 6.75-6.75s6.75 3.028 6.75 6.75a6.734 6.734 0 01-1.479 4.21l2.759 2.759a.752.752 0 01-.531 1.281zm-7.5-13.501a5.256 5.256 0 00-5.25 5.25c0 2.895 2.355 5.25 5.25 5.25s5.25-2.355 5.25-5.25a5.256 5.256 0 00-5.25-5.25z"/>
		<path d="M15.749 18.002a.75.75 0 01-.75-.75v-2.25h-.75a.75.75 0 010-1.5h3a.75.75 0 010 1.5h-.75v2.25a.75.75 0 01-.75.75z"/>
	</symbol>
	<symbol id="wd-recapiti" viewBox="0 0 24 24">
		<title>recapiti</title>
		<path class="b" d="M20.84 4.22a2.211 2.211 0 00-.18-.34 1.982 1.982 0 00-.54-.54 2.211 2.211 0 00-.34-.18A2.013 2.013 0 0019 3h-1V1h-2v2H8V1H6v2H5a2.028 2.028 0 00-1.12.34 1.982 1.982 0 00-.54.54 2.211 2.211 0 00-.18.34A2.013 2.013 0 003 5v14a2 2 0 002 2h14a2.013 2.013 0 00.78-.16 2.211 2.211 0 00.34-.18 1.982 1.982 0 00.54-.54A2.053 2.053 0 0021 19V5a2.013 2.013 0 00-.16-.78zM5 19V5h14v14zm7-6.12c-2.03 0-6 1.08-6 3.58V18h12v-1.53c0-2.51-3.97-3.59-6-3.59zM8.31 16A7.011 7.011 0 0112 14.88 6.982 6.982 0 0115.69 16zM12 12a3 3 0 10-3-3 3.009 3.009 0 003 3zm0-4a1 1 0 11-1 1 1 1 0 011-1z"/>
	</symbol>
	<symbol id="wd-refresh" viewBox="0 0 24 24">
		<title>refresh</title>
		<path class="b" d="M17.65 6.35A8 8 0 1019.73 14h-2.08A6 6 0 1112 6a5.915 5.915 0 014.22 1.78L13 11h7V4z"/>
	</symbol>
	<symbol id="wd-ricerca" viewBox="0 0 24 24">
		<title>ricerca</title>
		<path class="a" d="M20.41 19l-4.81-4.82a7 7 0 10-1.42 1.42L19 20.41zM10 15a5 5 0 115-5 5 5 0 01-5 5z"/>
	</symbol>
	<symbol id="wd-search-plus" viewBox="0 0 24 24">
		<title>search-plus</title>
		<path d="M20.41 19l-4.81-4.82a7 7 0 10-1.42 1.42L19 20.41zM10 15a5 5 0 115-5 5 5 0 01-5 5z"/>
		<path d="M10.5 7h-1v2.5H7v1h2.5V13h1v-2.5H13v-1h-2.5z"/>
	</symbol>
	<symbol id="wd-sensori" viewBox="0 0 24 24">
		<title>hierarchy-8</title>
		<path d="M20.25 22.498a3.743 3.743 0 01-3.673-3H7.423a3.744 3.744 0 01-3.673 3c-2.068 0-3.75-1.682-3.75-3.75s1.682-3.75 3.75-3.75c.336 0 .672.047 1 .139l4.604-7.235A3.738 3.738 0 018.25 5.248 3.754 3.754 0 0112 1.498a3.754 3.754 0 013.75 3.75 3.738 3.738 0 01-1.104 2.654l4.604 7.235a3.696 3.696 0 011-.139c2.068 0 3.75 1.682 3.75 3.75s-1.682 3.75-3.75 3.75zm0-6c-1.241 0-2.25 1.009-2.25 2.25s1.009 2.25 2.25 2.25 2.25-1.009 2.25-2.25-1.009-2.25-2.25-2.25zm-16.5 0c-1.241 0-2.25 1.009-2.25 2.25s1.009 2.25 2.25 2.25S6 19.989 6 18.748s-1.009-2.25-2.25-2.25zm12.827 1.5a3.733 3.733 0 011.332-2.175l-4.516-7.096c-.444.18-.911.271-1.393.271s-.949-.091-1.393-.271l-4.516 7.096a3.733 3.733 0 011.332 2.175h9.154zM12 2.998c-1.241 0-2.25 1.009-2.25 2.25s1.009 2.25 2.25 2.25 2.25-1.009 2.25-2.25-1.009-2.25-2.25-2.25z"/>
	</symbol>
	<symbol id="wd-status-ok" viewBox="0 0 24 24">
		<title>status-ok</title>
		<path class="b" d="M9 16.2L4.8 12l-1.4 1.4L9 19 21 7l-1.4-1.4z"/>
	</symbol>
	<symbol id="wd-strumenti-ausilio-bandi" viewBox="0 0 24 24">
		<title>notes-calendar</title>
		<path d="M2.251 24a2.252 2.252 0 01-2.25-2.25v-18a2.252 2.252 0 012.25-2.25h3.75V.75a.75.75 0 011.5 0v.75h8.998V.75a.75.75 0 011.5 0v.75h3.751C22.99 1.5 24 2.509 24 3.75v18c0 1.241-1.01 2.25-2.25 2.25H2.251zm0-21a.75.75 0 00-.75.75v18c0 .414.336.75.75.75H21.75a.75.75 0 00.75-.75v-18a.75.75 0 00-.75-.75h-3.751v.75a.75.75 0 01-1.5 0V3H7.501v.75a.75.75 0 01-1.5 0V3h-3.75z"/>
		<path d="M5.251 21a.75.75 0 01-.75-.75V6.75a.75.75 0 01.75-.75H19.5a.75.75 0 01.75.75v8.379c0 .601-.235 1.166-.66 1.591l-3.619 3.622A2.242 2.242 0 0114.38 21H5.251zm8.249-1.5v-3.75a2.252 2.252 0 012.25-2.25h3v-6H6.001v12H13.5zm2.25-4.5a.75.75 0 00-.75.75v3.44l3.53-3.532a.744.744 0 00.22-.53V15h-3z"/>
	</symbol>
	<symbol id="wd-suolo-acque" viewBox="0 0 24 24">
		<title>suolo-acque</title>
		<path d="M12 20a6.018 6.018 0 01-6-6c0-4 6-10.8 6-10.8S18 10 18 14a6.018 6.018 0 01-6 6z"/>
		<path fill="none" d="M0 0h24v24H0z"/>
	</symbol>
	<symbol id="wd-suolo-arboreto-consociabile" viewBox="0 0 24 24">
		<title>suolo-arboreto-consociabile</title>
		<path d="M-2459.978 1226.536h24v24h-24z" fill="none" transform="translate(2459.978 -1226.536)"/>
		<path d="M-2441.978 1241.456a7 7 0 006-6.92 7 7 0 00-7-7 7 7 0 00-7 7 7 7 0 006 6.92v6.08h-11v-2h-1v2h-2v2h20v-2h-4z" transform="translate(2459.978 -1226.536)"/>
		<path d="M-2459.978 1241.536a4 4 0 004 4 4 4 0 00-4-4zm9 0a4 4 0 00-4 4 4 4 0 004-4zm-4 0a4 4 0 004-4 4 4 0 00-4 4zm4-8a4 4 0 00-4 4 4 4 0 004-4zm-4.5-3.828a4 4 0 000 5.656 4 4 0 000-5.656zm-.5 11.828a4 4 0 00-4-4 4 4 0 004 4zm0-4a4 4 0 00-4-4 4 4 0 004 4z" transform="translate(2459.978 -1226.536)"/>
	</symbol>
	<symbol id="wd-suolo-arboreto-promiscuo" viewBox="0 0 24 24">
		<title>suolo-arboreto-promiscuo</title>
		<path d="M-2460.978 1256.536h24v24h-24z" fill="none" transform="translate(2460.978 -1256.536)"/>
		<path d="M-2442.978 1271.456a7 7 0 006-6.92 7 7 0 00-7-7 7 7 0 00-7 7 7 7 0 006 6.92v6.08h-9v-2h5l-4-4h3l-4-4h3l-4-4-4 4h3l-4 4h3l-4 4h5v2h-3v2h20v-2h-4z" transform="translate(2460.978 -1256.536)"/>
	</symbol>
	<symbol id="wd-suolo-area-non-pascolabile" viewBox="0 0 24 24">
		<title>suolo-area-non-pascolabile</title>
		<path d="M0 0h24v24H0z" fill="none"/>
		<path d="M14 6l-3.75 5 2.85 3.8-1.6 1.2C9.81 13.75 7 10 7 10l-6 8h22z"/>
	</symbol>
	<symbol id="wd-suolo-bosco" viewBox="0 0 24 24">
		<title>suolo-bosco</title>
		<path d="M11 21v-4.3a4.013 4.013 0 01-1.5.3A4.481 4.481 0 015 12.5a4.158 4.158 0 011.4-3.2A3.922 3.922 0 016 7.5 4.481 4.481 0 0110.5 3a4.688 4.688 0 013.8 2h.2a5.5 5.5 0 010 11 7.719 7.719 0 01-1.5-.2V21z"/>
		<path fill="none" d="M0 0h24v24H0z"/>
	</symbol>
	<symbol id="wd-suolo-coltivazioni-arboree-specializzate" viewBox="0 0 24 24">
		<title>suolo-coltivazioni-arboree-specializzate</title>
		<path d="M14 12a2 2 0 11-2-2 2.006 2.006 0 012 2m-7-2a2 2 0 102 2 2.006 2.006 0 00-2-2m10 0a2 2 0 102 2 2.006 2.006 0 00-2-2m-2.5-4a2 2 0 102 2 2.006 2.006 0 00-2-2m-5 0a2 2 0 102 2 2.006 2.006 0 00-2-2m5 8a2 2 0 102 2 2.006 2.006 0 00-2-2m-5 0a2 2 0 102 2 2.006 2.006 0 00-2-2m2.5 4a2 2 0 102 2 2.006 2.006 0 00-2-2m2.4-15.8L13.6 1c-2.2 1-2.4 4.6-2.4 5h1.5c.1-.8.4-3.3 1.7-3.8z"/>
		<path fill="none" d="M0 0h24v24H0z"/>
	</symbol>
	<symbol id="wd-suolo-fabbricato-generico" viewBox="0 0 24 24">
		<title>suolo-fabbricato-generico</title>
		<path fill="none" d="M0 0h24v24H0z"/>
		<path d="M19 12h3L12 3 2 12h3v8h2v-2h10v2h2zM7.21 10h9.58l.21.19V12H7v-1.81zm7.36-2H9.43L12 5.69zM7 16v-2h10v2z"/>
	</symbol>
	<symbol id="wd-suolo-pascolo-arborato" viewBox="0 0 24 24">
		<title>suolo-pascolo-arborato</title>
		<path d="M-2525.978 1286.536h24v24h-24z" fill="none" transform="translate(2525.978 -1286.536)"/>
		<path d="M-2501.978 1294.536a7 7 0 00-7-7 7 7 0 00-6.932 6.076 1.709 1.709 0 00-.5-.212 1.638 1.638 0 00-1.57.469 1.637 1.637 0 00-1.568-.469 1.638 1.638 0 00-1.211 1.1 1.633 1.633 0 00-1.62.258 1.635 1.635 0 00-.611 1.523 1.631 1.631 0 00-1.342.933 1.64 1.64 0 00-.092 1.211 4.486 4.486 0 01.544-.394 1.071 1.071 0 01.1-.55 1.066 1.066 0 01.993-.591l.6.03-.162-.582a1.032 1.032 0 01.355-1.1 1.032 1.032 0 011.151-.1l.53.288.1-.589a1.033 1.033 0 01.8-.836 1.031 1.031 0 011.082.408l.351.487.35-.487a1.033 1.033 0 011.082-.409 1.033 1.033 0 01.8.836l.1.59.53-.288a1.038 1.038 0 011.151.1 1.033 1.033 0 01.355 1.1l-.162.581.6-.03a1.033 1.033 0 01.994.592 1.082 1.082 0 01.1.549 4.416 4.416 0 01.543.394 1.648 1.648 0 00.072-.6 1.648 1.648 0 01-.072.6 4.41 4.41 0 011.538 3.026h.018v6.08h-2v2h6v-2h-2v-6.08a7 7 0 006.003-6.914z" transform="translate(2525.978 -1286.536)"/>
		<path d="M-2511.625 1303.337a1.637 1.637 0 00.127-1.03 4.359 4.359 0 01-.719-.219 1.042 1.042 0 01.038.982 1.04 1.04 0 01-.993.59l-.6-.029.162.582a1.034 1.034 0 01-.355 1.1 1.034 1.034 0 01-1.151.1l-.53-.288-.1.589a1.031 1.031 0 01-.8.836 1.031 1.031 0 01-1.081-.408l-.351-.486-.35.486a1.031 1.031 0 01-1.082.409 1.034 1.034 0 01-.8-.836l-.1-.59-.53.288a1.041 1.041 0 01-1.152-.1 1.037 1.037 0 01-.355-1.1l.163-.581-.6.029a1.029 1.029 0 01-.994-.591 1.037 1.037 0 01.038-.981 4.341 4.341 0 01-.72.219 1.641 1.641 0 00.127 1.029 1.636 1.636 0 001.343.935 1.632 1.632 0 00.611 1.522 1.635 1.635 0 001.62.258 1.635 1.635 0 001.21 1.1 1.727 1.727 0 00.382.043 1.626 1.626 0 001.187-.512 1.642 1.642 0 001.569.469 1.638 1.638 0 001.211-1.1 1.634 1.634 0 001.62-.258 1.634 1.634 0 00.611-1.522 1.635 1.635 0 001.344-.935zm-9.935-5.352a3.8 3.8 0 00-3.8 3.8 3.8 3.8 0 003.8-3.8zm10.967 3.801a3.8 3.8 0 00-3.8-3.8 3.8 3.8 0 003.8 3.8z" transform="translate(2525.978 -1286.536)"/>
		<path d="M-2517.978 1305.2a1.635 1.635 0 001.564-1.16l1.528-5.044a4.484 4.484 0 01-.114-.809 1.529 1.529 0 01-.824.243 1.525 1.525 0 01-.66-.154 1.838 1.838 0 01-1.494.77 1.84 1.84 0 01-1.494-.77 1.519 1.519 0 01-.659.154 1.527 1.527 0 01-.824-.243 4.4 4.4 0 01-.115.809l1.529 5.044a1.633 1.633 0 001.563 1.16z" transform="translate(2525.978 -1286.536)"/>
	</symbol>
	<symbol id="wd-suolo-pascolo-cespugliato" viewBox="0 0 24 24">
		<title>suolo-pascolo-cespugliato</title>
		<path d="M-2491.978 1317.661h24v24h-24z" fill="none" transform="translate(2491.978 -1317.661)"/>
		<path d="M-2471.662 1322.544a6.027 6.027 0 00-5.926-4.8 6.074 6.074 0 00-5.365 3.2 4.845 4.845 0 00-4.245 4.805 4.735 4.735 0 00.641 2.346 1.668 1.668 0 00-.2.408 1.633 1.633 0 00-1.62.258 1.635 1.635 0 00-.611 1.523 1.631 1.631 0 00-1.342.933 1.64 1.64 0 00-.092 1.211 4.486 4.486 0 01.544-.394 1.071 1.071 0 01.1-.55 1.066 1.066 0 01.993-.591l.6.03-.162-.582a1.032 1.032 0 01.355-1.1 1.032 1.032 0 011.151-.1l.53.288.1-.589a1.033 1.033 0 01.8-.836 1.031 1.031 0 011.082.408l.351.487.35-.487a1.033 1.033 0 011.082-.409 1.033 1.033 0 01.8.836l.1.59.53-.288a1.038 1.038 0 011.151.1 1.033 1.033 0 01.355 1.1l-.162.581.6-.03a1.033 1.033 0 01.994.592 1.082 1.082 0 01.1.549 4.416 4.416 0 01.543.394 1.631 1.631 0 00-.091-1.21 1.657 1.657 0 00-.6-.678v-3.83l-2.563-2.563.561-.561 2 2v-3.844h1.6v5.686l1.922-1.922.561.561-2.483 2.483v2h4.645a3.965 3.965 0 004-4 4.013 4.013 0 00-3.679-4.005zm-6.555 13.544a1.042 1.042 0 01.038.982 1.04 1.04 0 01-.993.59l-.6-.029.162.582a1.034 1.034 0 01-.355 1.1 1.034 1.034 0 01-1.151.1l-.53-.288-.1.589a1.031 1.031 0 01-.8.836 1.031 1.031 0 01-1.081-.408l-.351-.486-.35.486a1.031 1.031 0 01-1.082.409 1.034 1.034 0 01-.8-.836l-.1-.59-.53.288a1.041 1.041 0 01-1.152-.1 1.037 1.037 0 01-.355-1.1l.163-.581-.6.029a1.029 1.029 0 01-.994-.591 1.037 1.037 0 01.038-.981 4.341 4.341 0 01-.72.219 1.641 1.641 0 00.127 1.029 1.636 1.636 0 001.343.935 1.632 1.632 0 00.611 1.522 1.635 1.635 0 001.62.258 1.635 1.635 0 001.21 1.1 1.727 1.727 0 00.382.043 1.626 1.626 0 001.187-.512 1.642 1.642 0 001.569.469 1.638 1.638 0 001.211-1.1 1.634 1.634 0 001.62-.258 1.634 1.634 0 00.611-1.522 1.635 1.635 0 001.342-.934 1.637 1.637 0 00.127-1.03 4.359 4.359 0 01-.717-.22z" transform="translate(2491.978 -1317.661)"/>
		<path d="M-2487.56 1331.985a3.8 3.8 0 00-3.8 3.8 3.8 3.8 0 003.8-3.8zm7.16 0a3.8 3.8 0 003.8 3.8 3.8 3.8 0 00-3.8-3.8zm-3.578 7.215a1.635 1.635 0 001.564-1.16l1.528-5.044a4.484 4.484 0 01-.114-.809 1.529 1.529 0 01-.824.243 1.525 1.525 0 01-.66-.154 1.838 1.838 0 01-1.494.77 1.84 1.84 0 01-1.494-.77 1.519 1.519 0 01-.659.154 1.527 1.527 0 01-.824-.243 4.4 4.4 0 01-.115.809l1.529 5.044a1.633 1.633 0 001.563 1.16z" transform="translate(2491.978 -1317.661)"/>
	</symbol>
	<symbol id="wd-suolo-pascolo-polifita" viewBox="0 0 24 24">
		<title>suolo-pascolo-polifita</title>
		<path d="M-2495 1349.5h24v24h-24v-24z" fill="none" transform="translate(2494.978 -1349.536)"/>
		<path d="M-2492.6 1357.9c0-.3 0-.6.2-.9.3-.6.9-1 1.6-1h1l-.3-.9c-.2-.7 0-1.4.6-1.8.5-.4 1.3-.5 1.9-.2l.9.5.2-1c.1-.7.6-1.2 1.3-1.4.7-.2 1.4.1 1.8.7l.6.8.6-.8c.4-.6 1.1-.8 1.8-.7.7.1 1.2.7 1.3 1.4l.2 1 .9-.5c.6-.3 1.3-.3 1.9.2.5.4.8 1.1.6 1.8l-.3.9h1c.7 0 1.3.3 1.6 1 .1.3.2.6.2.9l.9.6c.2-.7.2-1.4-.1-2-.4-.9-1.2-1.4-2.2-1.5.1-.9-.2-1.9-1-2.5-.7-.6-1.7-.8-2.6-.4-.3-.9-1-1.6-2-1.8-.9-.2-1.9.1-2.6.8-.7-.7-1.6-1-2.5-.8-.9.2-1.7.9-2 1.8-.9-.3-1.9-.2-2.6.4-.8.6-1.1 1.5-1 2.5-.9.1-1.8.7-2.2 1.5-.3.6-.4 1.3-.1 2-.2-.2.1-.4.4-.6zm19 6.6c.3.5.3 1.1.1 1.6-.3.6-.9 1-1.6 1h-1l.3.9c.2.7 0 1.4-.6 1.8-.5.4-1.3.5-1.9.2l-.9-.5-.2 1c-.1.7-.6 1.2-1.3 1.4-.7.2-1.4-.1-1.8-.7l-.6-.8-.6.8c-.4.6-1.1.8-1.8.7-.7-.1-1.2-.7-1.3-1.4l-.2-1-.9.5c-.6.3-1.3.3-1.9-.2-.5-.4-.8-1.1-.6-1.8l.3-.9h-1c-.7 0-1.3-.3-1.6-1-.2-.5-.2-1.1.1-1.6-.4.2-.8.3-1.2.4-.1.6 0 1.2.2 1.7.4.9 1.2 1.4 2.2 1.5-.1.9.2 1.9 1 2.5.7.6 1.7.8 2.6.4.3.9 1 1.6 2 1.8.2 0 .4.1.6.1.7 0 1.4-.3 1.9-.8.7.7 1.6 1 2.6.8.9-.2 1.7-.9 2-1.8.9.3 1.9.2 2.6-.4.8-.6 1.1-1.5 1-2.5.9-.1 1.8-.7 2.2-1.5.2-.5.3-1.1.2-1.7-.2-.2-.5-.4-.9-.5z" transform="translate(2494.978 -1349.536)"/>
		<path d="M-2488.8 1357.8c-3.4 0-6.2 2.8-6.2 6.2 3.4 0 6.2-2.8 6.2-6.2zm11.6 0c0 3.4 2.8 6.2 6.2 6.2 0-3.4-2.7-6.2-6.2-6.2zm-3.4.5c-.6.8-1.5 1.2-2.4 1.3-1 0-1.9-.5-2.4-1.3-.3.2-.7.2-1.1.3-.5 0-.9-.1-1.3-.4 0 .4-.1.9-.2 1.3l2.5 8.2c.3 1.1 1.4 1.9 2.5 1.9 1.2 0 2.2-.8 2.5-1.9l2.5-8.2c-.1-.4-.2-.9-.2-1.3-.4.3-.9.4-1.3.4-.3-.1-.7-.2-1.1-.3z" transform="translate(2494.978 -1349.536)"/>
	</symbol>
	<symbol id="wd-suolo-seminativo-fotointerpretazione" viewBox="0 0 24 24">
		<title>suolo-seminativo-fotointerpretazione</title>
		<path d="M-2459.978 1197.536h24v24h-24z" fill="none" transform="translate(2459.978 -1197.536)"/>
		<path d="M-2447.478 1217.536v-2h-1v2h-9.5v2h20v-2zm-5-6a4 4 0 004 4 4 4 0 00-4-4zm9 0a4 4 0 00-4 4 4 4 0 004-4zm-4 0a4 4 0 004-4 4 4 0 00-4 4zm4-8a4 4 0 00-4 4 4 4 0 004-4zm-4.5-3.828a4 4 0 000 5.656 4 4 0 000-5.656zm-.5 11.828a4 4 0 00-4-4 4 4 0 004 4zm0-4a4 4 0 00-4-4 4 4 0 004 4z" transform="translate(2459.978 -1197.536)"/>
	</symbol>
	<symbol id="wd-suolo-serre" viewBox="0 0 24 24">
		<title>suolo-serre</title>
		<path d="M12 3l8 6v12h-5v-7H9v7H4V9z"/>
		<path fill="none" d="M0 0h24v24H0z"/>
	</symbol>
	<symbol id="wd-suolo-tare" viewBox="0 0 24 24">
		<title>suolo-tare</title>
		<path d="M8.6 6.3l-6.5 4.3v9.5h4.5v-7.2h3.6v7.2h4.5v-9.7L8.6 6.3z"/>
		<path d="M10.2 3.9v1.4L12 6.5l1.6 1h1.1v.8l1.8 1.2v1.6h1.8v1.8h-1.8v1.8h1.8v1.8h-1.8v3.6h5.4V3.9H10.2zm8.1 5.4h-1.8V7.5h1.8v1.8z"/>
	</symbol>
	<symbol id="wd-telefono" viewBox="0 0 24 24">
		<title>telefono</title>
		<path d="M0 0h24v24H0z" fill="none"/>
		<path d="M6.54 5a12.312 12.312 0 00.45 2.59l-1.2 1.2A14.826 14.826 0 015.03 5h1.51m9.86 12.02a12.753 12.753 0 002.6.45v1.49a15.426 15.426 0 01-3.8-.75l1.2-1.19M7.5 3H4a1 1 0 00-1 1 17 17 0 0017 17 1 1 0 001-1v-3.49a1 1 0 00-1-1 11.407 11.407 0 01-3.57-.57.839.839 0 00-.31-.05 1.024 1.024 0 00-.71.29l-2.2 2.2a15.149 15.149 0 01-6.59-6.59l2.2-2.2a1 1 0 00.25-1.02A11.36 11.36 0 018.5 4a1 1 0 00-1-1z"/>
	</symbol>
	<symbol id="wd-unfold-h-less" viewBox="0 0 24 24">
		<title>unfold-h-less</title>
		<path d="M7.41 18.59L8.83 20 12 16.83 15.17 20l1.41-1.41L12 14zm9.18-13.18L15.17 4 12 7.17 8.83 4 7.41 5.41 12 10z" transform="rotate(90 12 12)"/>
	</symbol>
	<symbol id="wd-unfold-h-more" viewBox="0 0 24 24">
		<title>unfold-h-more</title>
		<path d="M12 5.83L15.17 9l1.41-1.41L12 3 7.41 7.59 8.83 9zm0 12.34L8.83 15l-1.41 1.41L12 21l4.59-4.59L15.17 15z" transform="rotate(-90 12 12)"/>
	</symbol>
	<symbol id="wd-unfold-v-less" viewBox="0 0 24 24">
		<title>unfold-v-less</title>
		<path d="M7.41 18.59L8.83 20 12 16.83 15.17 20l1.41-1.41L12 14zm9.18-13.18L15.17 4 12 7.17 8.83 4 7.41 5.41 12 10z"/>
	</symbol>
	<symbol id="wd-unfold-v-more" viewBox="0 0 24 24">
		<title>unfold-v-more</title>
		<path d="M12 5.83L15.17 9l1.41-1.41L12 3 7.41 7.59 8.83 9zm0 12.34L8.83 15l-1.41 1.41L12 21l4.59-4.59L15.17 15z"/>
	</symbol>
	<symbol id="wd-user-add" viewBox="0 0 24 24">
		<title>user-add</title>
		<path d="M15 12a4 4 0 10-4-4 4 4 0 004 4zm0-6a2 2 0 11-2 2 2.006 2.006 0 012-2zm0 8c-2.67 0-8 1.34-8 4v2h16v-2c0-2.66-5.33-4-8-4zm-6 4c.22-.72 3.31-2 6-2s5.8 1.29 6 2zm-3-3v-3h3v-2H6V7H4v3H1v2h3v3z"/>
	</symbol>
	<symbol id="wd-user" viewBox="0 0 24 24">
		<title>user</title>
		<path d="M12 6a2 2 0 11-2 2 2.006 2.006 0 012-2m0 10c2.7 0 5.8 1.29 6 2H6c.23-.72 3.31-2 6-2m0-12a4 4 0 104 4 4 4 0 00-4-4zm0 10c-2.67 0-8 1.34-8 4v2h16v-2c0-2.66-5.33-4-8-4z"/>
	</symbol>
	<symbol id="wd-uso-suolo" viewBox="0 0 24 24">
		<title>uso-suolo</title>
		<path class="b" d="M12 2a10 10 0 1010 10A10 10 0 0012 2zm7.93 9H13V4.07A8 8 0 0119.93 11zM4 12a8 8 0 017-7.93v15.86A8 8 0 014 12zm9 7.93V13h6.93A8 8 0 0113 19.93z"/>
	</symbol>
	<symbol id="wd-zoom-in" viewBox="0 0 24 24">
		<title>zoom-in</title>
		<path class="b" d="M19 13h-6v6h-2v-6H5v-2h6V5h2v6h6z"/>
	</symbol>
	<symbol id="wd-zoom-out" viewBox="0 0 24 24">
		<title>zoom-out</title>
		<path class="b" d="M19 13H5v-2h14z"/>
	</symbol>
</svg>